<?xml version="1.0" encoding="utf-8"?><!DOCTYPE svg PUBLIC "-//W3C//DTD SVG 1.1 Tiny//EN" "http://www.w3.org/Graphics/SVG/1.1/DTD/svg11-tiny.dtd"><svg version="1.1" baseProfile="tiny" id="Layer_1" xmlns="http://www.w3.org/2000/svg" xmlns:xlink="http://www.w3.org/1999/xlink" x="0px" y="0px" viewBox="216.71 308 181.43 178.01" xml:space="preserve"><g><path id="XMLID_1_" fill="#AEBE2F" d="M369,308c0.33,0,0.67,0,1,0c0.85,2.14,1.62,4.32,2.55,6.43
		c6.86,15.48,10.05,31.56,8.63,48.56c-0.85,10.23-3.5,20.16-4.39,30.37c-0.12,1.43-0.95,2.79,0.2,4.28
		c6.74,8.74,10.81,19.63,21.15,25.61c-9.69,14.15-21.21,25.48-37.6,31.04c-9.74,3.31-15.98,11.21-22.15,18.65
		c-3.2,3.86-6.26,7.26-10.82,9.04c-4.1,1.59-8.38,2.71-12.58,4.03c-3.67,0-7.33,0-11,0c-12.32-3.02-19.88-12.36-27.5-21.32
		c-2.26-2.65-4.38-4.6-7.57-5.77c-4.95-1.83-10.8-2.65-14.28-6.63c-4.84-5.52-10.96-9.52-15.83-14.95
		c-4.54-5.06-10.05-8.93-16.74-10.83c-0.07-9.76,8.82-13.05,13.67-19.05c-5.25-4.37-5.07-5.45,0.62-8.34
		c3.65-1.86,8.09-2.58,10.89-6.7c-4.93-1.67-8.11-4.71-10.62-8.55c-2.29-3.51-5.62-5.63-9.52-6.86c-3.13-0.98-6.33-1.75-10.4-2.87
		c2.69-1.33,4.87-1.79,6.75-3.2c10.91-8.17,21.03-17.21,31.07-26.39c5.53-5.05,12.13-7.07,19.82-5.8c4.31,0.72,8.52,2.17,13.18,1.26
		c15.11-2.97,30.38-2.59,45.63-1.13c1.68,0.16,3.17,0.21,4.42-1.44c6.62-8.75,15.69-14.8,23.96-21.74
		C364.27,313.42,367.88,311.87,369,308z"/>
	<path fill="#FFFFFF" d="M367.73,345.45c0.89,2.78,1.16,5.44,0.89,8.01c-0.27,2.56-1.07,5.03-2.35,7.4
				c-0.43-0.08-0.86-0.16-1.29-0.24C365.9,355.57,366.82,350.51,367.73,345.45z"/>
	<path fill="#FFFFFF" d="M256.99,377.76c-3.55-0.61-6.99-1.24-10.34-2.28c-2.68-0.84-5.31-1.95-7.9-3.53
				C244.02,368.41,252.56,371.18,256.99,377.76z"/>
	<path fill="#FFFFFF" d="M285.59,426.95c-3.01,0.76-7.44-1.23-10.42-4.16l-2.39-3.19C277.6,421.51,281.63,423.59,285.59,426.95z"
				/>
	<path fill="#FFFFFF" d="M352.57,422.82c-2.72,2.01-5.38,4.19-8.75,5.47c-2.11,0.79-4.5,1.23-7.37,1.05
				C341.89,424.84,347.41,424.28,352.57,422.82z"/>
	<path fill="#FFFFFF" d="M334.94,452.65c-0.17,4.89-3.76,6.45-6.01,8.79c-4.95,5.16-10.68,8.52-18.4,7.64
				c-4.51-0.51-8.1-2.63-11.44-5.16c-4.89-3.69-10.19-7.09-12.91-13.45c8.24,1.52,15.48,6.03,23.88,6.57
				C318.55,457.58,326.37,454,334.94,452.65z"/></g></svg>
